<svg width="21" height="19" viewBox="0 0 21 19" fill="none" xmlns="http://www.w3.org/2000/svg">
<path d="M20.36 6.05198C20.36 6.66058 20.251 7.31988 20.034 8.02988C19.816 8.72868 19.461 9.38228 18.968 9.99088C18.487 10.5882 17.852 11.0897 17.061 11.4955C16.282 11.9012 15.332 12.1041 14.209 12.1041H6.151V7.92848H14.209C14.816 7.92848 15.286 7.74818 15.618 7.38748C15.95 7.01558 16.116 6.55918 16.116 6.01818C16.116 5.44348 15.927 4.99268 15.549 4.66578C15.183 4.33898 14.736 4.17558 14.209 4.17558H6.151C5.544 4.17558 5.074 4.36148 4.742 4.73338C4.41 5.09408 4.244 5.54488 4.244 6.08578V12.2224C4.244 12.8084 4.427 13.2649 4.793 13.5917C5.171 13.9185 5.635 14.0819 6.185 14.0819H18.968V18.2744H6.151C5.532 18.2744 4.862 18.1673 4.141 17.9532C3.43 17.7391 2.766 17.3953 2.147 16.922C1.54 16.4374 1.031 15.8119 0.617996 15.0455C0.205996 14.2679 0 13.3269 0 12.2224V6.05198C0 5.44348 0.108996 4.78978 0.325996 4.09098C0.543996 3.38098 0.893001 2.72738 1.374 2.13008C1.867 1.52146 2.503 1.0143 3.281 0.60858C4.072 0.20286 5.028 0 6.151 0H14.209C14.828 0 15.492 0.107069 16.202 0.321199C16.924 0.535329 17.588 0.884699 18.195 1.36931C18.814 1.84265 19.329 2.46818 19.742 3.24578C20.154 4.01218 20.36 4.94758 20.36 6.05198Z" fill="#0B0C4F"/>
</svg>
