<svg width="21" height="19" viewBox="0 0 21 19" fill="none" xmlns="http://www.w3.org/2000/svg">
<path d="M20.5837 16.0598C20.5837 16.3754 20.5264 16.6684 20.4119 16.9389C20.2973 17.2094 20.137 17.4461 19.9308 17.6489C19.736 17.8405 19.5012 17.9927 19.2263 18.1054C18.9629 18.2181 18.6765 18.2744 18.3672 18.2744H8.2644C7.7146 18.2744 7.1247 18.2124 6.4947 18.0884C5.8762 17.9645 5.2633 17.7673 4.6563 17.4968C4.0492 17.215 3.4593 16.8656 2.8865 16.4487C2.3253 16.0204 1.8327 15.5076 1.4089 14.9103C0.985101 14.3017 0.6415 13.603 0.378 12.8141C0.126 12.0252 0 11.1348 0 10.1431V0H4.4673V10.1431C4.4673 10.7178 4.5646 11.2363 4.7593 11.6983C4.9655 12.1491 5.2404 12.5379 5.5841 12.8648C5.9277 13.1916 6.3286 13.4452 6.7868 13.6255C7.2564 13.7946 7.7604 13.8791 8.2988 13.8791H16.1164V0H20.5837V16.0598Z" fill="#0B0C4F"/>
</svg>
