<svg width="21" height="19" viewBox="0 0 21 19" fill="none" xmlns="http://www.w3.org/2000/svg">
<path d="M20.3603 6.05198C20.3603 6.66058 20.2515 7.31988 20.0339 8.02988C19.8163 8.72868 19.4612 9.38228 18.9686 9.99088C18.4875 10.5882 17.8518 11.0897 17.0615 11.4955C16.2826 11.9012 15.3318 12.1041 14.2093 12.1041H6.1511V7.92848H14.2093C14.8164 7.92848 15.286 7.74818 15.6182 7.38748C15.9504 7.01558 16.1165 6.55918 16.1165 6.01818C16.1165 5.44348 15.9275 4.99268 15.5495 4.66578C15.1829 4.33898 14.7362 4.17558 14.2093 4.17558H6.1511C5.544 4.17558 5.0744 4.36148 4.7422 4.73338C4.41 5.09408 4.2439 5.54488 4.2439 6.08578V12.2224C4.2439 12.8084 4.4272 13.2649 4.7937 13.5917C5.1717 13.9185 5.6356 14.0819 6.1855 14.0819H18.9686V18.2744H6.1511C5.5325 18.2744 4.8625 18.1673 4.1408 17.9532C3.4307 17.7391 2.7663 17.3953 2.1478 16.922C1.5407 16.4374 1.031 15.8119 0.618599 15.0455C0.206199 14.2679 0 13.3269 0 12.2224V6.05198C0 5.44348 0.1089 4.78978 0.3265 4.09098C0.5441 3.38098 0.893503 2.72738 1.3746 2.13008C1.8671 1.52146 2.5028 1.0143 3.2817 0.60858C4.0721 0.20286 5.0286 0 6.1511 0H14.2093C14.8278 0 15.4922 0.107069 16.2024 0.321199C16.924 0.535329 17.5884 0.884699 18.1955 1.36931C18.814 1.84265 19.3294 2.46818 19.7418 3.24578C20.1542 4.01218 20.3603 4.94758 20.3603 6.05198Z" fill="#0B0C4F"/>
</svg>
