<svg width="21" height="24" viewBox="0 0 21 24" fill="none" xmlns="http://www.w3.org/2000/svg">
<path d="M7 20.8C7 22.01 5.95 23 4.66667 23C3.38333 23 2.345 22.01 2.345 20.8C2.345 19.59 3.38333 18.6 4.66667 18.6C5.95 18.6 7 19.59 7 20.8ZM16.3333 18.6C15.05 18.6 14.0117 19.59 14.0117 20.8C14.0117 22.01 15.05 23 16.3333 23C17.6167 23 18.6667 22.01 18.6667 20.8C18.6667 19.59 17.6167 18.6 16.3333 18.6ZM16.7953 13.1C17.3261 13.0999 17.841 12.9292 18.2551 12.616C18.6691 12.3028 18.9575 11.8659 19.0727 11.3774L21 4.3H4.66667V3.2C4.66667 2.61652 4.42083 2.05694 3.98325 1.64437C3.54566 1.23178 2.95217 1 2.33333 1H0V3.2H2.33333V15.3C2.33333 15.8835 2.57917 16.4431 3.01675 16.8556C3.45434 17.2682 4.04783 17.5 4.66667 17.5H18.6667C18.6667 16.9165 18.4208 16.3569 17.9832 15.9444C17.5457 15.5318 16.9522 15.3 16.3333 15.3H4.66667V13.1H16.7953Z" fill="black"/>
</svg>
