<svg width="24" height="24" viewBox="0 0 24 24" fill="none" xmlns="http://www.w3.org/2000/svg">
<path d="M9.77767 15.6472C9.77767 16.6237 10.6364 17.4172 11.6939 17.4172C12.7514 17.4172 13.6109 16.6237 13.6109 15.6397V14.3625C13.6109 14.2792 13.6657 14.2057 13.7459 14.181C16.2569 13.3875 17.9999 11.1892 17.9999 8.67148V7.73098C17.9999 4.55173 15.2324 1.90123 11.8297 1.83523C10.1197 1.79773 8.50567 2.39323 7.28092 3.49423C6.06442 4.59598 5.38867 6.07948 5.38867 7.65823C5.38867 8.64148 6.25492 9.43498 7.31317 9.43498C8.37142 9.43498 9.22942 8.64148 9.22942 7.66498C9.22942 7.04848 9.49192 6.46798 9.96892 6.03523C10.4564 5.59621 11.0944 5.36197 11.7502 5.38123C13.0852 5.41123 14.1674 6.46873 14.1674 7.73848V8.67148C14.1674 9.77248 13.3244 10.7197 12.1552 10.9185C10.7797 11.1532 9.77767 12.2617 9.77767 13.554V15.6472ZM11.6249 22.5C12.1222 22.5 12.5991 22.3024 12.9507 21.9508C13.3024 21.5992 13.4999 21.1223 13.4999 20.625C13.4999 20.1277 13.3024 19.6508 12.9507 19.2992C12.5991 18.9475 12.1222 18.75 11.6249 18.75C11.1276 18.75 10.6507 18.9475 10.2991 19.2992C9.94747 19.6508 9.74992 20.1277 9.74992 20.625C9.74992 21.1223 9.94747 21.5992 10.2991 21.9508C10.6507 22.3024 11.1276 22.5 11.6249 22.5Z" fill="black"/>
</svg>
