<svg width="24" height="24" viewBox="0 0 24 24" fill="none" xmlns="http://www.w3.org/2000/svg">
<path fill-rule="evenodd" clip-rule="evenodd" d="M2.16667 13.1667C1.85725 13.1667 1.5605 13.0438 1.34171 12.825C1.12292 12.6062 1 12.3094 1 12C1 9.10667 2.15593 6.48213 4.02727 4.58187C5.8986 2.68067 8.49187 1.5 11.3577 1.5C13.9453 1.5 16.3104 2.4632 18.1229 4.0494C18.442 3.77824 18.7774 3.52686 19.1272 3.29667C19.781 2.8706 20.6215 3.2248 20.8203 3.943C21.195 5.29867 21.3938 6.85873 21.4783 7.65487C21.4968 7.82418 21.4772 7.99548 21.4209 8.15624C21.3646 8.317 21.2731 8.46314 21.1531 8.58397C21.0331 8.70481 20.8876 8.79728 20.7272 8.85461C20.5668 8.91194 20.3956 8.93269 20.2262 8.91533C19.4058 8.83367 17.765 8.6372 16.4751 8.25733C16.3079 8.20898 16.1543 8.12211 16.0268 8.00369C15.8992 7.88527 15.8011 7.7386 15.7404 7.57543C15.6798 7.41227 15.6582 7.23716 15.6774 7.06416C15.6967 6.89115 15.7562 6.72505 15.8512 6.5792C16.0365 6.2936 16.2493 6.00333 16.4831 5.71633C15.0525 4.49983 13.2356 3.83232 11.3577 3.83333C9.14707 3.83333 7.1446 4.74147 5.69 6.21893C4.17415 7.76065 3.32735 9.8379 3.33333 12C3.33333 12.3094 3.21042 12.6062 2.99162 12.825C2.77283 13.0438 2.47609 13.1667 2.16667 13.1667ZM20.8333 10.8333C21.1428 10.8333 21.4395 10.9562 21.6583 11.175C21.8771 11.3938 22 11.6906 22 12C22 14.8933 20.8441 17.5179 18.9727 19.4181C17.1014 21.3184 14.5081 22.5 11.6428 22.5C9.05467 22.5 6.6896 21.5368 4.87707 19.9506C4.55797 20.2218 4.22259 20.4731 3.8728 20.7033C3.219 21.1294 2.37853 20.7752 2.17973 20.057C1.805 18.7013 1.6062 17.1413 1.52173 16.3451C1.50324 16.1758 1.52285 16.0045 1.57911 15.8438C1.63537 15.683 1.72686 15.5369 1.84689 15.416C1.96692 15.2952 2.11245 15.2027 2.27282 15.1454C2.4332 15.0881 2.60437 15.0673 2.7738 15.0847C3.5942 15.1663 5.235 15.3628 6.52487 15.7427C6.69209 15.791 6.84566 15.8779 6.97324 15.9963C7.10083 16.1147 7.19889 16.2614 7.25955 16.4246C7.32022 16.5877 7.3418 16.7628 7.32256 16.9358C7.30333 17.1089 7.24382 17.2749 7.1488 17.4208C6.95404 17.7197 6.7431 18.0078 6.51693 18.2837C7.94752 19.5002 9.76445 20.1677 11.6423 20.1667C13.8529 20.1667 15.8554 19.2585 17.31 17.7811C18.8258 16.2393 19.6726 14.1621 19.6667 12C19.6667 11.6906 19.7896 11.3938 20.0084 11.175C20.2272 10.9562 20.5239 10.8333 20.8333 10.8333ZM6.69193 10.2883C7.15487 8.17893 9.71593 7.30627 11.3213 8.73007C11.383 8.78594 11.4427 8.84416 11.5 8.9046C11.5574 8.84487 11.6176 8.78467 11.6792 8.73053C13.2836 7.30627 15.8451 8.1794 16.3081 10.2883C16.6137 11.601 16.1321 12.7383 15.3794 13.6893C14.6304 14.6371 13.5921 15.4277 12.7329 16.0619C12.3756 16.3246 11.9436 16.4664 11.5 16.4664C11.0564 16.4664 10.6244 16.3246 10.2671 16.0619C9.40793 15.4277 8.3696 14.6371 7.6206 13.6893C6.86787 12.7378 6.38627 11.601 6.69193 10.2883Z" fill="black"/>
</svg>
