<svg width="24" height="24" viewBox="0 0 24 24" fill="none" xmlns="http://www.w3.org/2000/svg">
<path d="M17.6899 7.94442C17.6899 5.09342 16.7879 4.25542 15.6869 3.86192C13.4079 3.04692 8.54189 2.42042 5.77339 3.86192C5.01689 4.25542 3.34389 4.91292 3.18739 6.75192C2.89889 10.1344 2.97239 13.5319 3.21239 16.9204C3.35389 18.9134 4.98289 19.9934 6.33139 20.2424C9.93639 20.9074 13.9694 20.7984 17.8679 20.3439C19.5919 20.1429 20.5729 18.8379 20.8089 17.8589C21.3834 15.4764 21.6714 11.9749 21.3919 10.8604C20.6739 7.99792 19.1464 8.02042 17.6899 7.94442L7.77639 8.02041L17.6899 7.94442Z" fill="#00ABD6"/>
<path d="M17.6899 7.94442C17.6899 5.09342 16.7879 4.25542 15.6869 3.86192C13.4079 3.04692 8.54189 2.42042 5.77339 3.86192C5.01689 4.25542 3.34389 4.91292 3.18739 6.75192C2.89889 10.1344 2.97239 13.5319 3.21239 16.9204C3.35389 18.9134 4.98289 19.9934 6.33139 20.2424C9.93639 20.9074 13.9694 20.7984 17.8679 20.3439C19.5919 20.1429 20.5729 18.8379 20.8089 17.8589C21.3834 15.4764 21.6714 11.9749 21.3919 10.8604C20.6739 7.99792 19.1464 8.02042 17.6899 7.94442ZM17.6899 7.94442L7.77639 8.02041" stroke="white" stroke-width="0.5" stroke-linecap="round" stroke-linejoin="round"/>
<path d="M16.5529 13.7031L16.5779 14.3548C16.5529 15.0316 17.8964 15.0711 17.8964 14.3548V13.6285C19.6744 11.4534 14.9739 11.0137 16.5529 13.7031Z" fill="white" stroke="white" stroke-width="0.5" stroke-linecap="round" stroke-linejoin="round"/>
</svg>
