<svg width="38" height="38" viewBox="0 0 38 38" fill="none" xmlns="http://www.w3.org/2000/svg">
<path fill-rule="evenodd" clip-rule="evenodd" d="M16.5849 3.89139C17.3428 3.54467 18.1665 3.3652 19 3.3652C19.8335 3.3652 20.6572 3.54467 21.4151 3.89139C26.8801 6.39376 30.951 9.9728 32.9115 11.9038C33.9685 12.9445 34.5336 14.3322 34.6131 15.7643C34.7102 17.5285 34.8333 20.3897 34.8333 23.6169C34.8333 25.8941 34.7721 27.9883 34.7017 29.6434C34.6505 30.915 34.1189 32.1199 33.2143 33.015C32.3096 33.9101 31.0992 34.4288 29.8272 34.4666C27.3797 34.5511 23.7423 34.6348 19 34.6348C14.2577 34.6348 10.6203 34.5504 8.17281 34.4666C6.90075 34.4288 5.69035 33.9101 4.78571 33.015C3.88108 32.1199 3.34953 30.915 3.29826 29.6434C3.21222 27.6357 3.16834 25.6264 3.16666 23.6169C3.16666 20.3897 3.28981 17.5285 3.38692 15.7643C3.46644 14.3322 4.03152 12.9445 5.08848 11.9038C7.049 9.9728 11.1206 6.39376 16.5849 3.89139ZM13.3704 27.2459C12.9971 27.2459 12.6391 27.3942 12.3752 27.6581C12.1112 27.9221 11.963 28.2801 11.963 28.6533C11.963 29.0266 12.1112 29.3846 12.3752 29.6485C12.6391 29.9124 12.9971 30.0607 13.3704 30.0607H24.6296C25.0029 30.0607 25.3609 29.9124 25.6248 29.6485C25.8888 29.3846 26.037 29.0266 26.037 28.6533C26.037 28.2801 25.8888 27.9221 25.6248 27.6581C25.3609 27.3942 25.0029 27.2459 24.6296 27.2459H13.3704Z" fill="#FE8400"/>
</svg>
