<svg width="21" height="21" viewBox="0 0 21 21" fill="none" xmlns="http://www.w3.org/2000/svg">
<path d="M10.5 0C12.0913 0 13.6174 0.632141 14.7426 1.75736C15.8679 2.88258 16.5 4.4087 16.5 6V7.5L16.731 7.506C17.883 7.56521 18.9682 8.06451 19.7626 8.90081C20.557 9.7371 21 10.8465 21 12V16.5C21 17.6935 20.5259 18.8381 19.682 19.682C18.8381 20.5259 17.6935 21 16.5 21H4.5C3.30653 21 2.16193 20.5259 1.31802 19.682C0.474106 18.8381 0 17.6935 0 16.5V12C1.71967e-05 10.8465 0.44297 9.7371 1.23739 8.90081C2.03182 8.06451 3.11705 7.56521 4.269 7.506L4.5 7.5V6C4.5 4.4087 5.13214 2.88258 6.25736 1.75736C7.38258 0.632141 8.9087 0 10.5 0ZM10.5 11.625C10.2016 11.625 9.91548 11.7435 9.7045 11.9545C9.49353 12.1655 9.375 12.4516 9.375 12.75V15.75C9.375 16.0484 9.49353 16.3345 9.7045 16.5455C9.91548 16.7565 10.2016 16.875 10.5 16.875C10.7984 16.875 11.0845 16.7565 11.2955 16.5455C11.5065 16.3345 11.625 16.0484 11.625 15.75V12.75C11.625 12.4516 11.5065 12.1655 11.2955 11.9545C11.0845 11.7435 10.7984 11.625 10.5 11.625ZM10.5 2.25C9.50544 2.25 8.55161 2.64509 7.84835 3.34835C7.14509 4.05161 6.75 5.00544 6.75 6V7.5H14.25V6C14.25 5.00544 13.8549 4.05161 13.1517 3.34835C12.4484 2.64509 11.4946 2.25 10.5 2.25Z" fill="black"/>
<path d="M10.5 0C12.0913 0 13.6174 0.632141 14.7426 1.75736C15.8679 2.88258 16.5 4.4087 16.5 6V7.5L16.731 7.506C17.883 7.56521 18.9682 8.06451 19.7626 8.90081C20.557 9.7371 21 10.8465 21 12V16.5C21 17.6935 20.5259 18.8381 19.682 19.682C18.8381 20.5259 17.6935 21 16.5 21H4.5C3.30653 21 2.16193 20.5259 1.31802 19.682C0.474106 18.8381 0 17.6935 0 16.5V12C1.71967e-05 10.8465 0.44297 9.7371 1.23739 8.90081C2.03182 8.06451 3.11705 7.56521 4.269 7.506L4.5 7.5V6C4.5 4.4087 5.13214 2.88258 6.25736 1.75736C7.38258 0.632141 8.9087 0 10.5 0ZM10.5 11.625C10.2016 11.625 9.91548 11.7435 9.7045 11.9545C9.49353 12.1655 9.375 12.4516 9.375 12.75V15.75C9.375 16.0484 9.49353 16.3345 9.7045 16.5455C9.91548 16.7565 10.2016 16.875 10.5 16.875C10.7984 16.875 11.0845 16.7565 11.2955 16.5455C11.5065 16.3345 11.625 16.0484 11.625 15.75V12.75C11.625 12.4516 11.5065 12.1655 11.2955 11.9545C11.0845 11.7435 10.7984 11.625 10.5 11.625ZM10.5 2.25C9.50544 2.25 8.55161 2.64509 7.84835 3.34835C7.14509 4.05161 6.75 5.00544 6.75 6V7.5H14.25V6C14.25 5.00544 13.8549 4.05161 13.1517 3.34835C12.4484 2.64509 11.4946 2.25 10.5 2.25Z" fill="black"/>
</svg>
