<svg width="30" height="30" viewBox="0 0 30 30" fill="none" xmlns="http://www.w3.org/2000/svg">
<path fill-rule="evenodd" clip-rule="evenodd" d="M10.0774 9.9225L11.2499 6.40875L7.69742 2.85875C8.42242 2.6275 9.19742 2.5 9.99992 2.5C11.1714 2.49966 12.3266 2.77374 13.3731 3.30027C14.4196 3.8268 15.3281 4.59115 16.026 5.53205C16.7239 6.47296 17.1916 7.56426 17.3918 8.71849C17.592 9.87273 17.519 11.0578 17.1787 12.1788L24.9999 20C25.3282 20.3283 25.5887 20.7181 25.7663 21.147C25.944 21.576 26.0355 22.0357 26.0355 22.5C26.0355 22.9643 25.944 23.424 25.7663 23.853C25.5887 24.2819 25.3282 24.6717 24.9999 25C24.6716 25.3283 24.2819 25.5887 23.8529 25.7664C23.424 25.9441 22.9642 26.0355 22.4999 26.0355C22.0356 26.0355 21.5759 25.9441 21.1469 25.7664C20.718 25.5887 20.3282 25.3283 19.9999 25L12.1787 17.1788C10.8689 17.5771 9.47501 17.6093 8.1482 17.2719C6.8214 16.9345 5.61225 16.2403 4.65182 15.2647C3.6914 14.2891 3.01633 13.0692 2.6998 11.7373C2.38327 10.4053 2.43735 9.01215 2.85617 7.70875L6.40492 11.25L9.92117 10.0788L10.0774 9.9225Z" fill="black"/>
</svg>
