<svg width="24" height="24" viewBox="0 0 24 24" fill="none" xmlns="http://www.w3.org/2000/svg">
<path d="M12 12.5C10.625 12.5 9.44792 12.0104 8.46875 11.0312C7.48958 10.0521 7 8.875 7 7.5C7 6.125 7.48958 4.94792 8.46875 3.96875C9.44792 2.98958 10.625 2.5 12 2.5C13.375 2.5 14.5521 2.98958 15.5312 3.96875C16.5104 4.94792 17 6.125 17 7.5C17 8.875 16.5104 10.0521 15.5312 11.0312C14.5521 12.0104 13.375 12.5 12 12.5ZM2 20V19C2 18.2917 2.1825 17.6408 2.5475 17.0475C2.9125 16.4542 3.39667 16.0008 4 15.6875C5.29167 15.0417 6.60417 14.5575 7.9375 14.235C9.27083 13.9125 10.625 13.7508 12 13.75C13.375 13.7492 14.7292 13.9108 16.0625 14.235C17.3958 14.5592 18.7083 15.0433 20 15.6875C20.6042 16 21.0887 16.4533 21.4537 17.0475C21.8187 17.6417 22.0008 18.2925 22 19V20C22 20.6875 21.7554 21.2762 21.2662 21.7662C20.7771 22.2562 20.1883 22.5008 19.5 22.5H4.5C3.8125 22.5 3.22417 22.2554 2.735 21.7662C2.24583 21.2771 2.00083 20.6883 2 20Z" fill="black"/>
</svg>
