<svg width="40" height="40" viewBox="0 0 40 40" fill="none" xmlns="http://www.w3.org/2000/svg">
<g clip-path="url(#clip0_90_134)">
<mask id="mask0_90_134" style="mask-type:luminance" maskUnits="userSpaceOnUse" x="0" y="0" width="40" height="40">
<path d="M40 20C40 8.9543 31.0457 0 20 0C8.9543 0 0 8.9543 0 20C0 31.0457 8.9543 40 20 40C31.0457 40 40 31.0457 40 20Z" fill="white"/>
</mask>
<g mask="url(#mask0_90_134)">
<path d="M40 0H-3.05176e-05V40H40V0Z" fill="#FFAD08"/>
<path d="M-5.30933 26.8713C-7.03726 37.781 0.406044 48.0258 11.3158 49.7538C22.2255 51.4817 32.4703 44.0384 34.1982 33.1287C35.9261 22.219 28.4828 11.9741 17.5731 10.2462C6.66342 8.5183 -3.5814 15.9616 -5.30933 26.8713Z" fill="#FE8400"/>
<path d="M9.13098 26.3483C9.42906 27.6037 10.2682 28.7487 11.4637 29.5314C12.6593 30.3141 14.1133 30.6704 15.506 30.5219C16.8987 30.3734 18.1159 29.7322 18.8899 28.7395C19.6639 27.7468 19.9313 26.4838 19.6332 25.2284" fill="white"/>
<path d="M6.68863 22.8913C6.53685 22.2555 6.09053 21.7744 5.69174 21.8168C5.29295 21.8591 5.09271 22.4088 5.24448 23.0446C5.39626 23.6803 5.84258 24.1614 6.24137 24.1191C6.64016 24.0767 6.84041 23.527 6.68863 22.8913Z" fill="white"/>
<path d="M22.0526 20.4578C21.9009 19.822 21.4545 19.341 21.0558 19.3833C20.657 19.4256 20.4567 19.9753 20.6085 20.6111C20.7603 21.2469 21.2066 21.7279 21.6054 21.6856C22.0042 21.6432 22.2044 21.0935 22.0526 20.4578Z" fill="white"/>
</g>
</g>
<defs>
<clipPath id="clip0_90_134">
<rect width="40" height="40" fill="white"/>
</clipPath>
</defs>
</svg>
