<svg width="24" height="27" viewBox="0 0 24 27" fill="none" xmlns="http://www.w3.org/2000/svg">
<path d="M24 0.0133335C23.9126 0.0122676 23.8259 0.0295115 23.7455 0.0639561C23.6651 0.0984008 23.5929 0.149284 23.5333 0.213333L22.48 1.26667C22.2133 1.53333 21.8 1.53333 21.5333 1.26667L20.48 0.213333C20.2133 -0.0533333 19.8 -0.0533333 19.5333 0.213333L18.48 1.26667C18.2133 1.53333 17.8 1.53333 17.5333 1.26667L16.48 0.213333C16.2133 -0.0533333 15.8 -0.0533333 15.5333 0.213333L14.48 1.26667C14.2133 1.53333 13.8 1.53333 13.5333 1.26667L12.48 0.213333C12.2133 -0.0533333 11.8 -0.0533333 11.5333 0.213333L10.48 1.26667C10.2133 1.53333 9.8 1.53333 9.53333 1.26667L8.46667 0.2C8.2 -0.0666667 7.78667 -0.0666667 7.52 0.2L6.46667 1.26667C6.2 1.53333 5.78667 1.53333 5.52 1.26667L4.46667 0.2C4.2 -0.0666667 3.78667 -0.0666667 3.52 0.2L2.46667 1.26667C2.2 1.53333 1.78667 1.53333 1.52 1.26667L0.466667 0.2C0.341422 0.0792766 0.173952 0.0122885 0 0.0133335V26.1333C0.173333 26.1333 0.346667 26.0667 0.466667 25.9333L1.52 24.88C1.78667 24.6133 2.2 24.6133 2.46667 24.88L3.52 25.9333C3.78667 26.2 4.2 26.2 4.46667 25.9333L5.52 24.88C5.78667 24.6133 6.2 24.6133 6.46667 24.88L7.52 25.9333C7.78667 26.2 8.2 26.2 8.46667 25.9333L9.52 24.88C9.78667 24.6133 10.2 24.6133 10.4667 24.88L11.52 25.9333C11.7867 26.2 12.2 26.2 12.4667 25.9333L13.52 24.88C13.7867 24.6133 14.2 24.6133 14.4667 24.88L15.52 25.9333C15.7867 26.2 16.2 26.2 16.4667 25.9333L17.52 24.88C17.7867 24.6133 18.2 24.6133 18.4667 24.88L19.52 25.9333C19.7867 26.2 20.2 26.2 20.4667 25.9333L21.52 24.88C21.7867 24.6133 22.2 24.6133 22.4667 24.88L23.52 25.9333C23.6533 26.0667 23.8267 26.1333 23.9867 26.1333V0.0133335H24ZM18.6667 19.7333H5.33333C4.6 19.7333 4 19.1333 4 18.4C4 17.6667 4.6 17.0667 5.33333 17.0667H18.6667C19.4 17.0667 20 17.6667 20 18.4C20 19.1333 19.4 19.7333 18.6667 19.7333ZM18.6667 14.4H5.33333C4.6 14.4 4 13.8 4 13.0667C4 12.3333 4.6 11.7333 5.33333 11.7333H18.6667C19.4 11.7333 20 12.3333 20 13.0667C20 13.8 19.4 14.4 18.6667 14.4ZM18.6667 9.06667H5.33333C4.6 9.06667 4 8.46667 4 7.73333C4 7 4.6 6.4 5.33333 6.4H18.6667C19.4 6.4 20 7 20 7.73333C20 8.46667 19.4 9.06667 18.6667 9.06667Z" fill="black"/>
</svg>
