<svg width="27" height="27" viewBox="0 0 27 27" fill="none" xmlns="http://www.w3.org/2000/svg">
<path d="M26.209 14.3965L17.3496 23.2558C16.5586 24.0469 15.1875 23.4932 15.1875 22.3594V17.2969H8.01562C7.31426 17.2969 6.75 16.7326 6.75 16.0312V10.9687C6.75 10.2674 7.31426 9.70312 8.01562 9.70312H15.1875V4.64062C15.1875 3.5121 16.5533 2.95312 17.3496 3.74413L26.209 12.6035C26.6994 13.0992 26.6994 13.9008 26.209 14.3965ZM10.125 22.9922V20.8828C10.125 20.5348 9.84023 20.25 9.49219 20.25H5.0625C4.1291 20.25 3.375 19.4959 3.375 18.5625V8.43749C3.375 7.50409 4.1291 6.74999 5.0625 6.74999H9.49219C9.84023 6.74999 10.125 6.46523 10.125 6.11718V4.0078C10.125 3.65976 9.84023 3.37499 9.49219 3.37499H5.0625C2.26758 3.37499 0 5.64257 0 8.43749V18.5625C0 21.3574 2.26758 23.625 5.0625 23.625H9.49219C9.84023 23.625 10.125 23.3402 10.125 22.9922Z" fill="black"/>
</svg>
