<svg width="24" height="24" viewBox="0 0 24 24" fill="none" xmlns="http://www.w3.org/2000/svg">
<path d="M17.875 22.5C18.4386 22.5 18.9791 22.2787 19.3776 21.8849C19.7761 21.4911 20 20.957 20 20.4V8.21768C20 7.95042 19.893 7.69427 19.7029 7.50641L13.9172 1.78872C13.73 1.60374 13.4774 1.5 13.2142 1.5H5.125C4.56141 1.5 4.02091 1.72125 3.6224 2.11508C3.22388 2.5089 3 3.04305 3 3.6V20.4C3 20.957 3.22388 21.4911 3.6224 21.8849C4.02091 22.2787 4.56141 22.5 5.125 22.5H17.875ZM12.5625 5.99415C12.5625 5.1061 13.6338 4.65865 14.2654 5.28288L16.1433 7.13872C16.7791 7.76696 16.3342 8.85 15.4404 8.85H13.5625C13.0102 8.85 12.5625 8.40228 12.5625 7.85V5.99415ZM6.1875 8.8C6.1875 8.24772 6.63522 7.8 7.1875 7.8H8.375C8.92728 7.8 9.375 8.24771 9.375 8.8V8.9C9.375 9.45228 8.92728 9.9 8.375 9.9H7.1875C6.63522 9.9 6.1875 9.45228 6.1875 8.9V8.8ZM6.1875 13C6.1875 12.4477 6.63522 12 7.1875 12H15.8125C16.3648 12 16.8125 12.4477 16.8125 13V13.1C16.8125 13.6523 16.3648 14.1 15.8125 14.1H7.1875C6.63522 14.1 6.1875 13.6523 6.1875 13.1V13ZM6.1875 17.2C6.1875 16.6477 6.63522 16.2 7.1875 16.2H15.8125C16.3648 16.2 16.8125 16.6477 16.8125 17.2V17.3C16.8125 17.8523 16.3648 18.3 15.8125 18.3H7.1875C6.63522 18.3 6.1875 17.8523 6.1875 17.3V17.2Z" fill="black"/>
</svg>
