<svg width="135" height="27" viewBox="0 0 135 27" fill="none" xmlns="http://www.w3.org/2000/svg">
<g clip-path="url(#clip0_293_740)">
<path d="M22.9283 20.1297C22.9283 21.0087 22.7737 21.8258 22.4644 22.5809C22.1552 23.336 21.7199 23.9896 21.1586 24.5419C20.6088 25.0941 19.9502 25.528 19.1827 25.8436C18.4153 26.1479 17.5791 26.3 16.6742 26.3H0.300049V21.9047H16.6742C17.224 21.9047 17.6536 21.7525 17.9628 21.4482C18.2721 21.1327 18.4267 20.6932 18.4267 20.1297V2.05814H22.9283V20.1297Z" fill="#0B0C4F"/>
<path d="M47.7559 24.0854C47.7559 24.401 47.6986 24.694 47.5841 24.9645C47.4695 25.235 47.3092 25.4717 47.103 25.6745C46.9082 25.8661 46.6734 26.0183 46.3985 26.131C46.1351 26.2437 45.8487 26.3 45.5394 26.3H35.4366C34.8868 26.3 34.2969 26.238 33.6669 26.114C33.0484 25.9901 32.4355 25.7929 31.8285 25.5224C31.2214 25.2406 30.6315 24.8912 30.0587 24.4743C29.4975 24.046 29.0049 23.5332 28.5811 22.9359C28.1573 22.3273 27.8137 21.6286 27.5502 20.8397C27.2982 20.0508 27.1722 19.1604 27.1722 18.1687V8.02563H31.6395V18.1687C31.6395 18.7434 31.7368 19.2619 31.9315 19.7239C32.1377 20.1747 32.4126 20.5635 32.7563 20.8904C33.0999 21.2172 33.5008 21.4708 33.959 21.6511C34.4286 21.8202 34.9326 21.9047 35.471 21.9047H43.2886V8.02563H47.7559V24.0854Z" fill="#0B0C4F"/>
<path d="M60.1095 26.3H58.1164C57.475 26.3 56.7877 26.1929 56.0546 25.9788C55.333 25.7647 54.6572 25.4153 54.0272 24.9307C53.3972 24.4348 52.876 23.7981 52.4637 23.0204C52.0513 22.2315 51.8451 21.2679 51.8451 20.1297V0.299988H56.3124V20.1297C56.3124 20.6706 56.4842 21.1045 56.8278 21.4313C57.1714 21.7469 57.601 21.9047 58.1164 21.9047H60.1095V26.3Z" fill="#0B0C4F"/>
<path d="M67.5148 4.27267H63.0476V0.299988H67.5148V4.27267ZM67.5148 26.3H63.0476V8.02561H67.5148V26.3Z" fill="#0B0C4F"/>
<path d="M91.7925 14.0776C91.7925 14.6862 91.6837 15.3455 91.4661 16.0555C91.2485 16.7543 90.8934 17.4079 90.4008 18.0165C89.9197 18.6138 89.284 19.1153 88.4937 19.5211C87.7148 19.9268 86.764 20.1297 85.6415 20.1297H77.5833V15.9541H85.6415C86.2486 15.9541 86.7182 15.7738 87.0504 15.4131C87.3826 15.0412 87.5487 14.5848 87.5487 14.0438C87.5487 13.4691 87.3597 13.0183 86.9817 12.6914C86.6151 12.3646 86.1684 12.2012 85.6415 12.2012H77.5833C76.9762 12.2012 76.5066 12.3871 76.1744 12.759C75.8422 13.1197 75.6761 13.5705 75.6761 14.1114V20.248C75.6761 20.834 75.8594 21.2905 76.2259 21.6173C76.6039 21.9441 77.0678 22.1075 77.6177 22.1075H90.4008V26.3H77.5833C76.9647 26.3 76.2947 26.1929 75.573 25.9788C74.8629 25.7647 74.1985 25.4209 73.58 24.9476C72.9729 24.463 72.4632 23.8375 72.0508 23.0711C71.6384 22.2935 71.4322 21.3525 71.4322 20.248V14.0776C71.4322 13.4691 71.5411 12.8154 71.7587 12.1166C71.9763 11.4066 72.3257 10.753 72.8068 10.1557C73.2993 9.54709 73.935 9.03993 74.7139 8.63421C75.5043 8.22849 76.4608 8.02563 77.5833 8.02563H85.6415C86.26 8.02563 86.9244 8.1327 87.6346 8.34683C88.3562 8.56096 89.0206 8.91033 89.6277 9.39494C90.2462 9.86828 90.7616 10.4938 91.174 11.2714C91.5864 12.0378 91.7925 12.9732 91.7925 14.0776Z" fill="#0B0C4F"/>
<path d="M134.3 14.0776C134.3 14.6862 134.191 15.3455 133.974 16.0555C133.756 16.7543 133.401 17.4079 132.908 18.0165C132.427 18.6138 131.792 19.1153 131.001 19.5211C130.222 19.9268 129.272 20.1297 128.149 20.1297H120.091V15.9541H128.149C128.756 15.9541 129.226 15.7738 129.558 15.4131C129.89 15.0412 130.056 14.5848 130.056 14.0438C130.056 13.4691 129.867 13.0183 129.489 12.6914C129.123 12.3646 128.676 12.2012 128.149 12.2012H120.091C119.484 12.2012 119.014 12.3871 118.682 12.759C118.35 13.1197 118.184 13.5705 118.184 14.1114V20.248C118.184 20.834 118.367 21.2905 118.733 21.6173C119.111 21.9441 119.575 22.1075 120.125 22.1075H132.908V26.3H120.091C119.472 26.3 118.802 26.1929 118.081 25.9788C117.37 25.7647 116.706 25.4209 116.087 24.9476C115.48 24.463 114.971 23.8375 114.558 23.0711C114.146 22.2935 113.94 21.3525 113.94 20.248V14.0776C113.94 13.4691 114.049 12.8154 114.266 12.1166C114.484 11.4066 114.833 10.753 115.314 10.1557C115.807 9.54709 116.443 9.03993 117.221 8.63421C118.012 8.22849 118.968 8.02563 120.091 8.02563H128.149C128.768 8.02563 129.432 8.1327 130.142 8.34683C130.864 8.56096 131.528 8.91033 132.135 9.39494C132.754 9.86828 133.269 10.4938 133.682 11.2714C134.094 12.0378 134.3 12.9732 134.3 14.0776Z" fill="#0B0C4F"/>
<path d="M92.8791 10.1663V6.70419H97.1369V1.5802H101.711V6.70419H110.966V10.1663H101.711V20.2326C101.711 20.7452 101.754 21.2166 102.083 21.5411C102.413 21.8655 102.894 22.1402 103.538 22.1402H111.225V26.2359H103.434C101.543 26.2359 100.732 25.9788 100.192 25.786C99.6519 25.5931 99.1115 25.2554 98.5712 24.7247C98.0309 24.1941 97.7315 23.5982 97.4906 23.0711C97.2496 22.5441 97.1369 21.4313 97.1369 20.2326V10.1663H92.8791Z" fill="#0B0C4F"/>
<mask id="mask0_293_740" style="mask-type:luminance" maskUnits="userSpaceOnUse" x="-1" y="-1" width="137" height="29">
<path d="M135.3 -0.700012H-0.699951V27.3H135.3V-0.700012Z" fill="white"/>
<path d="M22.9283 20.1297C22.9283 21.0087 22.7737 21.8258 22.4644 22.5809C22.1552 23.336 21.7199 23.9896 21.1586 24.5419C20.6088 25.0941 19.9502 25.528 19.1827 25.8436C18.4153 26.1479 17.5791 26.3 16.6742 26.3H0.300049V21.9047H16.6742C17.224 21.9047 17.6536 21.7525 17.9628 21.4482C18.2721 21.1327 18.4267 20.6932 18.4267 20.1297V2.05811H22.9283V20.1297Z" fill="black"/>
<path d="M47.7559 24.0854C47.7559 24.401 47.6986 24.694 47.5841 24.9645C47.4695 25.235 47.3092 25.4717 47.103 25.6745C46.9082 25.8661 46.6734 26.0183 46.3985 26.131C46.1351 26.2437 45.8487 26.3 45.5394 26.3H35.4366C34.8868 26.3 34.2969 26.238 33.6669 26.114C33.0484 25.9901 32.4355 25.7929 31.8285 25.5224C31.2214 25.2406 30.6315 24.8912 30.0587 24.4743C29.4975 24.046 29.0049 23.5332 28.5811 22.9359C28.1573 22.3273 27.8137 21.6286 27.5502 20.8397C27.2982 20.0508 27.1722 19.1604 27.1722 18.1687V8.0256H31.6395V18.1687C31.6395 18.7434 31.7368 19.2619 31.9315 19.7239C32.1377 20.1747 32.4126 20.5635 32.7563 20.8904C33.0999 21.2172 33.5008 21.4708 33.959 21.6511C34.4286 21.8202 34.9326 21.9047 35.471 21.9047H43.2886V8.0256H47.7559V24.0854Z" fill="black"/>
<path d="M60.1095 26.3H58.1164C57.475 26.3 56.7877 26.1929 56.0546 25.9788C55.333 25.7647 54.6572 25.4153 54.0272 24.9307C53.3972 24.4348 52.876 23.7981 52.4637 23.0204C52.0513 22.2315 51.8451 21.2679 51.8451 20.1297V0.299988H56.3124V20.1297C56.3124 20.6706 56.4842 21.1045 56.8278 21.4313C57.1714 21.7469 57.601 21.9047 58.1164 21.9047H60.1095V26.3Z" fill="black"/>
<path d="M67.5148 4.27267H63.0476V0.299988H67.5148V4.27267ZM67.5148 26.3H63.0476V8.02561H67.5148V26.3Z" fill="black"/>
<path d="M91.7925 14.0776C91.7925 14.6862 91.6837 15.3455 91.4661 16.0555C91.2485 16.7543 90.8934 17.4079 90.4008 18.0165C89.9197 18.6138 89.284 19.1153 88.4937 19.5211C87.7148 19.9268 86.764 20.1297 85.6415 20.1297H77.5833V15.9541H85.6415C86.2486 15.9541 86.7182 15.7738 87.0504 15.4131C87.3826 15.0412 87.5487 14.5848 87.5487 14.0438C87.5487 13.4691 87.3597 13.0183 86.9817 12.6914C86.6151 12.3646 86.1684 12.2012 85.6415 12.2012H77.5833C76.9762 12.2012 76.5066 12.3871 76.1744 12.759C75.8422 13.1197 75.6761 13.5705 75.6761 14.1114V20.248C75.6761 20.834 75.8594 21.2905 76.2259 21.6173C76.6039 21.9441 77.0678 22.1075 77.6177 22.1075H90.4008V26.3H77.5833C76.9647 26.3 76.2947 26.1929 75.573 25.9788C74.8629 25.7647 74.1985 25.4209 73.58 24.9476C72.9729 24.463 72.4632 23.8375 72.0508 23.0711C71.6384 22.2935 71.4322 21.3525 71.4322 20.248V14.0776C71.4322 13.4691 71.5411 12.8154 71.7587 12.1166C71.9763 11.4066 72.3257 10.753 72.8068 10.1557C73.2993 9.54706 73.935 9.0399 74.7139 8.63418C75.5043 8.22846 76.4608 8.0256 77.5833 8.0256H85.6415C86.26 8.0256 86.9244 8.13267 87.6346 8.3468C88.3562 8.56093 89.0206 8.9103 89.6277 9.39491C90.2462 9.86825 90.7616 10.4938 91.174 11.2714C91.5864 12.0378 91.7925 12.9732 91.7925 14.0776Z" fill="black"/>
<path d="M134.3 14.0776C134.3 14.6862 134.191 15.3455 133.974 16.0555C133.756 16.7543 133.401 17.4079 132.908 18.0165C132.427 18.6138 131.792 19.1153 131.001 19.5211C130.222 19.9268 129.272 20.1297 128.149 20.1297H120.091V15.9541H128.149C128.756 15.9541 129.226 15.7738 129.558 15.4131C129.89 15.0412 130.056 14.5848 130.056 14.0438C130.056 13.4691 129.867 13.0183 129.489 12.6914C129.123 12.3646 128.676 12.2012 128.149 12.2012H120.091C119.484 12.2012 119.014 12.3871 118.682 12.759C118.35 13.1197 118.184 13.5705 118.184 14.1114V20.248C118.184 20.834 118.367 21.2905 118.733 21.6173C119.111 21.9441 119.575 22.1075 120.125 22.1075H132.908V26.3H120.091C119.472 26.3 118.802 26.1929 118.081 25.9788C117.37 25.7647 116.706 25.4209 116.087 24.9476C115.48 24.463 114.971 23.8375 114.558 23.0711C114.146 22.2935 113.94 21.3525 113.94 20.248V14.0776C113.94 13.4691 114.049 12.8154 114.266 12.1166C114.484 11.4066 114.833 10.753 115.314 10.1557C115.807 9.54706 116.443 9.0399 117.221 8.63418C118.012 8.22846 118.968 8.0256 120.091 8.0256H128.149C128.768 8.0256 129.432 8.13267 130.142 8.3468C130.864 8.56093 131.528 8.9103 132.135 9.39491C132.754 9.86825 133.269 10.4938 133.682 11.2714C134.094 12.0378 134.3 12.9732 134.3 14.0776Z" fill="black"/>
<path d="M92.8791 10.1663V6.70416H97.1369V1.58017H101.711V6.70416H110.966V10.1663H101.711V20.2326C101.711 20.7452 101.754 21.2166 102.083 21.5411C102.413 21.8655 102.894 22.1402 103.538 22.1402H111.225V26.2359H103.434C101.543 26.2359 100.732 25.9788 100.192 25.786C99.6519 25.5931 99.1115 25.2554 98.5712 24.7247C98.0309 24.1941 97.7315 23.5982 97.4906 23.0711C97.2496 22.5441 97.1369 21.4313 97.1369 20.2326V10.1663H92.8791Z" fill="black"/>
</mask>
<g mask="url(#mask0_293_740)">
<path d="M22.9283 20.1297C22.9283 21.0087 22.7737 21.8258 22.4644 22.5809C22.1552 23.336 21.7199 23.9896 21.1586 24.5419C20.6088 25.0941 19.9502 25.528 19.1827 25.8436C18.4153 26.1479 17.5791 26.3 16.6742 26.3H0.300049V21.9047H16.6742C17.224 21.9047 17.6536 21.7525 17.9628 21.4482C18.2721 21.1327 18.4267 20.6932 18.4267 20.1297V2.05811H22.9283V20.1297Z" stroke="#0B0C4F" stroke-width="0.6"/>
</g>
<mask id="mask1_293_740" style="mask-type:luminance" maskUnits="userSpaceOnUse" x="-1" y="-1" width="137" height="29">
<path d="M135.3 -0.700012H-0.699951V27.3H135.3V-0.700012Z" fill="white"/>
<path d="M22.9283 20.1297C22.9283 21.0087 22.7737 21.8258 22.4644 22.5809C22.1552 23.336 21.7199 23.9896 21.1586 24.5419C20.6088 25.0941 19.9502 25.528 19.1827 25.8436C18.4153 26.1479 17.5791 26.3 16.6742 26.3H0.300049V21.9047H16.6742C17.224 21.9047 17.6536 21.7525 17.9628 21.4482C18.2721 21.1327 18.4267 20.6932 18.4267 20.1297V2.05811H22.9283V20.1297Z" fill="black"/>
<path d="M47.7559 24.0854C47.7559 24.401 47.6986 24.694 47.5841 24.9645C47.4695 25.235 47.3092 25.4717 47.103 25.6745C46.9082 25.8661 46.6734 26.0183 46.3985 26.131C46.1351 26.2437 45.8487 26.3 45.5394 26.3H35.4366C34.8868 26.3 34.2969 26.238 33.6669 26.114C33.0484 25.9901 32.4355 25.7929 31.8285 25.5224C31.2214 25.2406 30.6315 24.8912 30.0587 24.4743C29.4975 24.046 29.0049 23.5332 28.5811 22.9359C28.1573 22.3273 27.8137 21.6286 27.5502 20.8397C27.2982 20.0508 27.1722 19.1604 27.1722 18.1687V8.0256H31.6395V18.1687C31.6395 18.7434 31.7368 19.2619 31.9315 19.7239C32.1377 20.1747 32.4126 20.5635 32.7563 20.8904C33.0999 21.2172 33.5008 21.4708 33.959 21.6511C34.4286 21.8202 34.9326 21.9047 35.471 21.9047H43.2886V8.0256H47.7559V24.0854Z" fill="black"/>
<path d="M60.1095 26.3H58.1164C57.475 26.3 56.7877 26.1929 56.0546 25.9788C55.333 25.7647 54.6572 25.4153 54.0272 24.9307C53.3972 24.4348 52.876 23.7981 52.4637 23.0204C52.0513 22.2315 51.8451 21.2679 51.8451 20.1297V0.299988H56.3124V20.1297C56.3124 20.6706 56.4842 21.1045 56.8278 21.4313C57.1714 21.7469 57.601 21.9047 58.1164 21.9047H60.1095V26.3Z" fill="black"/>
<path d="M67.5148 4.27267H63.0476V0.299988H67.5148V4.27267ZM67.5148 26.3H63.0476V8.02561H67.5148V26.3Z" fill="black"/>
<path d="M91.7925 14.0776C91.7925 14.6862 91.6837 15.3455 91.4661 16.0555C91.2485 16.7543 90.8934 17.4079 90.4008 18.0165C89.9197 18.6138 89.284 19.1153 88.4937 19.5211C87.7148 19.9268 86.764 20.1297 85.6415 20.1297H77.5833V15.9541H85.6415C86.2486 15.9541 86.7182 15.7738 87.0504 15.4131C87.3826 15.0412 87.5487 14.5848 87.5487 14.0438C87.5487 13.4691 87.3597 13.0183 86.9817 12.6914C86.6151 12.3646 86.1684 12.2012 85.6415 12.2012H77.5833C76.9762 12.2012 76.5066 12.3871 76.1744 12.759C75.8422 13.1197 75.6761 13.5705 75.6761 14.1114V20.248C75.6761 20.834 75.8594 21.2905 76.2259 21.6173C76.6039 21.9441 77.0678 22.1075 77.6177 22.1075H90.4008V26.3H77.5833C76.9647 26.3 76.2947 26.1929 75.573 25.9788C74.8629 25.7647 74.1985 25.4209 73.58 24.9476C72.9729 24.463 72.4632 23.8375 72.0508 23.0711C71.6384 22.2935 71.4322 21.3525 71.4322 20.248V14.0776C71.4322 13.4691 71.5411 12.8154 71.7587 12.1166C71.9763 11.4066 72.3257 10.753 72.8068 10.1557C73.2993 9.54706 73.935 9.0399 74.7139 8.63418C75.5043 8.22846 76.4608 8.0256 77.5833 8.0256H85.6415C86.26 8.0256 86.9244 8.13267 87.6346 8.3468C88.3562 8.56093 89.0206 8.9103 89.6277 9.39491C90.2462 9.86825 90.7616 10.4938 91.174 11.2714C91.5864 12.0378 91.7925 12.9732 91.7925 14.0776Z" fill="black"/>
<path d="M134.3 14.0776C134.3 14.6862 134.191 15.3455 133.974 16.0555C133.756 16.7543 133.401 17.4079 132.908 18.0165C132.427 18.6138 131.792 19.1153 131.001 19.5211C130.222 19.9268 129.272 20.1297 128.149 20.1297H120.091V15.9541H128.149C128.756 15.9541 129.226 15.7738 129.558 15.4131C129.89 15.0412 130.056 14.5848 130.056 14.0438C130.056 13.4691 129.867 13.0183 129.489 12.6914C129.123 12.3646 128.676 12.2012 128.149 12.2012H120.091C119.484 12.2012 119.014 12.3871 118.682 12.759C118.35 13.1197 118.184 13.5705 118.184 14.1114V20.248C118.184 20.834 118.367 21.2905 118.733 21.6173C119.111 21.9441 119.575 22.1075 120.125 22.1075H132.908V26.3H120.091C119.472 26.3 118.802 26.1929 118.081 25.9788C117.37 25.7647 116.706 25.4209 116.087 24.9476C115.48 24.463 114.971 23.8375 114.558 23.0711C114.146 22.2935 113.94 21.3525 113.94 20.248V14.0776C113.94 13.4691 114.049 12.8154 114.266 12.1166C114.484 11.4066 114.833 10.753 115.314 10.1557C115.807 9.54706 116.443 9.0399 117.221 8.63418C118.012 8.22846 118.968 8.0256 120.091 8.0256H128.149C128.768 8.0256 129.432 8.13267 130.142 8.3468C130.864 8.56093 131.528 8.9103 132.135 9.39491C132.754 9.86825 133.269 10.4938 133.682 11.2714C134.094 12.0378 134.3 12.9732 134.3 14.0776Z" fill="black"/>
<path d="M92.8791 10.1663V6.70416H97.1369V1.58017H101.711V6.70416H110.966V10.1663H101.711V20.2326C101.711 20.7452 101.754 21.2166 102.083 21.5411C102.413 21.8655 102.894 22.1402 103.538 22.1402H111.225V26.2359H103.434C101.543 26.2359 100.732 25.9788 100.192 25.786C99.6519 25.5931 99.1115 25.2554 98.5712 24.7247C98.0309 24.1941 97.7315 23.5982 97.4906 23.0711C97.2496 22.5441 97.1369 21.4313 97.1369 20.2326V10.1663H92.8791Z" fill="black"/>
</mask>
<g mask="url(#mask1_293_740)">
<path d="M47.7559 24.0854C47.7559 24.401 47.6986 24.694 47.5841 24.9645C47.4695 25.235 47.3092 25.4717 47.103 25.6745C46.9082 25.8661 46.6734 26.0183 46.3985 26.131C46.1351 26.2437 45.8487 26.3 45.5394 26.3H35.4366C34.8868 26.3 34.2969 26.238 33.6669 26.114C33.0484 25.9901 32.4355 25.7929 31.8285 25.5224C31.2214 25.2406 30.6315 24.8912 30.0587 24.4743C29.4975 24.046 29.0049 23.5332 28.5811 22.9359C28.1573 22.3273 27.8137 21.6286 27.5502 20.8397C27.2982 20.0508 27.1722 19.1604 27.1722 18.1687V8.0256H31.6395V18.1687C31.6395 18.7434 31.7368 19.2619 31.9315 19.7239C32.1377 20.1747 32.4126 20.5635 32.7563 20.8904C33.0999 21.2172 33.5008 21.4708 33.959 21.6511C34.4286 21.8202 34.9326 21.9047 35.471 21.9047H43.2886V8.0256H47.7559V24.0854Z" stroke="#0B0C4F" stroke-width="0.6"/>
</g>
<mask id="mask2_293_740" style="mask-type:luminance" maskUnits="userSpaceOnUse" x="-1" y="-1" width="137" height="29">
<path d="M135.3 -0.700012H-0.699951V27.3H135.3V-0.700012Z" fill="white"/>
<path d="M22.9283 20.1297C22.9283 21.0087 22.7737 21.8258 22.4644 22.5809C22.1552 23.336 21.7199 23.9896 21.1586 24.5419C20.6088 25.0941 19.9502 25.528 19.1827 25.8436C18.4153 26.1479 17.5791 26.3 16.6742 26.3H0.300049V21.9047H16.6742C17.224 21.9047 17.6536 21.7525 17.9628 21.4482C18.2721 21.1327 18.4267 20.6932 18.4267 20.1297V2.05811H22.9283V20.1297Z" fill="black"/>
<path d="M47.7559 24.0854C47.7559 24.401 47.6986 24.694 47.5841 24.9645C47.4695 25.235 47.3092 25.4717 47.103 25.6745C46.9082 25.8661 46.6734 26.0183 46.3985 26.131C46.1351 26.2437 45.8487 26.3 45.5394 26.3H35.4366C34.8868 26.3 34.2969 26.238 33.6669 26.114C33.0484 25.9901 32.4355 25.7929 31.8285 25.5224C31.2214 25.2406 30.6315 24.8912 30.0587 24.4743C29.4975 24.046 29.0049 23.5332 28.5811 22.9359C28.1573 22.3273 27.8137 21.6286 27.5502 20.8397C27.2982 20.0508 27.1722 19.1604 27.1722 18.1687V8.0256H31.6395V18.1687C31.6395 18.7434 31.7368 19.2619 31.9315 19.7239C32.1377 20.1747 32.4126 20.5635 32.7563 20.8904C33.0999 21.2172 33.5008 21.4708 33.959 21.6511C34.4286 21.8202 34.9326 21.9047 35.471 21.9047H43.2886V8.0256H47.7559V24.0854Z" fill="black"/>
<path d="M60.1095 26.3H58.1164C57.475 26.3 56.7877 26.1929 56.0546 25.9788C55.333 25.7647 54.6572 25.4153 54.0272 24.9307C53.3972 24.4348 52.876 23.7981 52.4637 23.0204C52.0513 22.2315 51.8451 21.2679 51.8451 20.1297V0.299988H56.3124V20.1297C56.3124 20.6706 56.4842 21.1045 56.8278 21.4313C57.1714 21.7469 57.601 21.9047 58.1164 21.9047H60.1095V26.3Z" fill="black"/>
<path d="M67.5148 4.27267H63.0476V0.299988H67.5148V4.27267ZM67.5148 26.3H63.0476V8.02561H67.5148V26.3Z" fill="black"/>
<path d="M91.7925 14.0776C91.7925 14.6862 91.6837 15.3455 91.4661 16.0555C91.2485 16.7543 90.8934 17.4079 90.4008 18.0165C89.9197 18.6138 89.284 19.1153 88.4937 19.5211C87.7148 19.9268 86.764 20.1297 85.6415 20.1297H77.5833V15.9541H85.6415C86.2486 15.9541 86.7182 15.7738 87.0504 15.4131C87.3826 15.0412 87.5487 14.5848 87.5487 14.0438C87.5487 13.4691 87.3597 13.0183 86.9817 12.6914C86.6151 12.3646 86.1684 12.2012 85.6415 12.2012H77.5833C76.9762 12.2012 76.5066 12.3871 76.1744 12.759C75.8422 13.1197 75.6761 13.5705 75.6761 14.1114V20.248C75.6761 20.834 75.8594 21.2905 76.2259 21.6173C76.6039 21.9441 77.0678 22.1075 77.6177 22.1075H90.4008V26.3H77.5833C76.9647 26.3 76.2947 26.1929 75.573 25.9788C74.8629 25.7647 74.1985 25.4209 73.58 24.9476C72.9729 24.463 72.4632 23.8375 72.0508 23.0711C71.6384 22.2935 71.4322 21.3525 71.4322 20.248V14.0776C71.4322 13.4691 71.5411 12.8154 71.7587 12.1166C71.9763 11.4066 72.3257 10.753 72.8068 10.1557C73.2993 9.54706 73.935 9.0399 74.7139 8.63418C75.5043 8.22846 76.4608 8.0256 77.5833 8.0256H85.6415C86.26 8.0256 86.9244 8.13267 87.6346 8.3468C88.3562 8.56093 89.0206 8.9103 89.6277 9.39491C90.2462 9.86825 90.7616 10.4938 91.174 11.2714C91.5864 12.0378 91.7925 12.9732 91.7925 14.0776Z" fill="black"/>
<path d="M134.3 14.0776C134.3 14.6862 134.191 15.3455 133.974 16.0555C133.756 16.7543 133.401 17.4079 132.908 18.0165C132.427 18.6138 131.792 19.1153 131.001 19.5211C130.222 19.9268 129.272 20.1297 128.149 20.1297H120.091V15.9541H128.149C128.756 15.9541 129.226 15.7738 129.558 15.4131C129.89 15.0412 130.056 14.5848 130.056 14.0438C130.056 13.4691 129.867 13.0183 129.489 12.6914C129.123 12.3646 128.676 12.2012 128.149 12.2012H120.091C119.484 12.2012 119.014 12.3871 118.682 12.759C118.35 13.1197 118.184 13.5705 118.184 14.1114V20.248C118.184 20.834 118.367 21.2905 118.733 21.6173C119.111 21.9441 119.575 22.1075 120.125 22.1075H132.908V26.3H120.091C119.472 26.3 118.802 26.1929 118.081 25.9788C117.37 25.7647 116.706 25.4209 116.087 24.9476C115.48 24.463 114.971 23.8375 114.558 23.0711C114.146 22.2935 113.94 21.3525 113.94 20.248V14.0776C113.94 13.4691 114.049 12.8154 114.266 12.1166C114.484 11.4066 114.833 10.753 115.314 10.1557C115.807 9.54706 116.443 9.0399 117.221 8.63418C118.012 8.22846 118.968 8.0256 120.091 8.0256H128.149C128.768 8.0256 129.432 8.13267 130.142 8.3468C130.864 8.56093 131.528 8.9103 132.135 9.39491C132.754 9.86825 133.269 10.4938 133.682 11.2714C134.094 12.0378 134.3 12.9732 134.3 14.0776Z" fill="black"/>
<path d="M92.8791 10.1663V6.70416H97.1369V1.58017H101.711V6.70416H110.966V10.1663H101.711V20.2326C101.711 20.7452 101.754 21.2166 102.083 21.5411C102.413 21.8655 102.894 22.1402 103.538 22.1402H111.225V26.2359H103.434C101.543 26.2359 100.732 25.9788 100.192 25.786C99.6519 25.5931 99.1115 25.2554 98.5712 24.7247C98.0309 24.1941 97.7315 23.5982 97.4906 23.0711C97.2496 22.5441 97.1369 21.4313 97.1369 20.2326V10.1663H92.8791Z" fill="black"/>
</mask>
<g mask="url(#mask2_293_740)">
<path d="M60.1095 26.3H58.1164C57.475 26.3 56.7877 26.1929 56.0546 25.9788C55.333 25.7647 54.6572 25.4153 54.0272 24.9307C53.3972 24.4348 52.876 23.7981 52.4637 23.0204C52.0513 22.2315 51.8451 21.2679 51.8451 20.1297V0.299988H56.3124V20.1297C56.3124 20.6706 56.4842 21.1045 56.8278 21.4313C57.1714 21.7469 57.601 21.9047 58.1164 21.9047H60.1095V26.3Z" stroke="#0B0C4F" stroke-width="0.6"/>
</g>
<mask id="mask3_293_740" style="mask-type:luminance" maskUnits="userSpaceOnUse" x="-1" y="-1" width="137" height="29">
<path d="M135.3 -0.700012H-0.699951V27.3H135.3V-0.700012Z" fill="white"/>
<path d="M22.9283 20.1297C22.9283 21.0087 22.7737 21.8258 22.4644 22.5809C22.1552 23.336 21.7199 23.9896 21.1586 24.5419C20.6088 25.0941 19.9502 25.528 19.1827 25.8436C18.4153 26.1479 17.5791 26.3 16.6742 26.3H0.300049V21.9047H16.6742C17.224 21.9047 17.6536 21.7525 17.9628 21.4482C18.2721 21.1327 18.4267 20.6932 18.4267 20.1297V2.05811H22.9283V20.1297Z" fill="black"/>
<path d="M47.7559 24.0854C47.7559 24.401 47.6986 24.694 47.5841 24.9645C47.4695 25.235 47.3092 25.4717 47.103 25.6745C46.9082 25.8661 46.6734 26.0183 46.3985 26.131C46.1351 26.2437 45.8487 26.3 45.5394 26.3H35.4366C34.8868 26.3 34.2969 26.238 33.6669 26.114C33.0484 25.9901 32.4355 25.7929 31.8285 25.5224C31.2214 25.2406 30.6315 24.8912 30.0587 24.4743C29.4975 24.046 29.0049 23.5332 28.5811 22.9359C28.1573 22.3273 27.8137 21.6286 27.5502 20.8397C27.2982 20.0508 27.1722 19.1604 27.1722 18.1687V8.0256H31.6395V18.1687C31.6395 18.7434 31.7368 19.2619 31.9315 19.7239C32.1377 20.1747 32.4126 20.5635 32.7563 20.8904C33.0999 21.2172 33.5008 21.4708 33.959 21.6511C34.4286 21.8202 34.9326 21.9047 35.471 21.9047H43.2886V8.0256H47.7559V24.0854Z" fill="black"/>
<path d="M60.1095 26.3H58.1164C57.475 26.3 56.7877 26.1929 56.0546 25.9788C55.333 25.7647 54.6572 25.4153 54.0272 24.9307C53.3972 24.4348 52.876 23.7981 52.4637 23.0204C52.0513 22.2315 51.8451 21.2679 51.8451 20.1297V0.299988H56.3124V20.1297C56.3124 20.6706 56.4842 21.1045 56.8278 21.4313C57.1714 21.7469 57.601 21.9047 58.1164 21.9047H60.1095V26.3Z" fill="black"/>
<path d="M67.5148 4.27267H63.0476V0.299988H67.5148V4.27267ZM67.5148 26.3H63.0476V8.02561H67.5148V26.3Z" fill="black"/>
<path d="M91.7925 14.0776C91.7925 14.6862 91.6837 15.3455 91.4661 16.0555C91.2485 16.7543 90.8934 17.4079 90.4008 18.0165C89.9197 18.6138 89.284 19.1153 88.4937 19.5211C87.7148 19.9268 86.764 20.1297 85.6415 20.1297H77.5833V15.9541H85.6415C86.2486 15.9541 86.7182 15.7738 87.0504 15.4131C87.3826 15.0412 87.5487 14.5848 87.5487 14.0438C87.5487 13.4691 87.3597 13.0183 86.9817 12.6914C86.6151 12.3646 86.1684 12.2012 85.6415 12.2012H77.5833C76.9762 12.2012 76.5066 12.3871 76.1744 12.759C75.8422 13.1197 75.6761 13.5705 75.6761 14.1114V20.248C75.6761 20.834 75.8594 21.2905 76.2259 21.6173C76.6039 21.9441 77.0678 22.1075 77.6177 22.1075H90.4008V26.3H77.5833C76.9647 26.3 76.2947 26.1929 75.573 25.9788C74.8629 25.7647 74.1985 25.4209 73.58 24.9476C72.9729 24.463 72.4632 23.8375 72.0508 23.0711C71.6384 22.2935 71.4322 21.3525 71.4322 20.248V14.0776C71.4322 13.4691 71.5411 12.8154 71.7587 12.1166C71.9763 11.4066 72.3257 10.753 72.8068 10.1557C73.2993 9.54706 73.935 9.0399 74.7139 8.63418C75.5043 8.22846 76.4608 8.0256 77.5833 8.0256H85.6415C86.26 8.0256 86.9244 8.13267 87.6346 8.3468C88.3562 8.56093 89.0206 8.9103 89.6277 9.39491C90.2462 9.86825 90.7616 10.4938 91.174 11.2714C91.5864 12.0378 91.7925 12.9732 91.7925 14.0776Z" fill="black"/>
<path d="M134.3 14.0776C134.3 14.6862 134.191 15.3455 133.974 16.0555C133.756 16.7543 133.401 17.4079 132.908 18.0165C132.427 18.6138 131.792 19.1153 131.001 19.5211C130.222 19.9268 129.272 20.1297 128.149 20.1297H120.091V15.9541H128.149C128.756 15.9541 129.226 15.7738 129.558 15.4131C129.89 15.0412 130.056 14.5848 130.056 14.0438C130.056 13.4691 129.867 13.0183 129.489 12.6914C129.123 12.3646 128.676 12.2012 128.149 12.2012H120.091C119.484 12.2012 119.014 12.3871 118.682 12.759C118.35 13.1197 118.184 13.5705 118.184 14.1114V20.248C118.184 20.834 118.367 21.2905 118.733 21.6173C119.111 21.9441 119.575 22.1075 120.125 22.1075H132.908V26.3H120.091C119.472 26.3 118.802 26.1929 118.081 25.9788C117.37 25.7647 116.706 25.4209 116.087 24.9476C115.48 24.463 114.971 23.8375 114.558 23.0711C114.146 22.2935 113.94 21.3525 113.94 20.248V14.0776C113.94 13.4691 114.049 12.8154 114.266 12.1166C114.484 11.4066 114.833 10.753 115.314 10.1557C115.807 9.54706 116.443 9.0399 117.221 8.63418C118.012 8.22846 118.968 8.0256 120.091 8.0256H128.149C128.768 8.0256 129.432 8.13267 130.142 8.3468C130.864 8.56093 131.528 8.9103 132.135 9.39491C132.754 9.86825 133.269 10.4938 133.682 11.2714C134.094 12.0378 134.3 12.9732 134.3 14.0776Z" fill="black"/>
<path d="M92.8791 10.1663V6.70416H97.1369V1.58017H101.711V6.70416H110.966V10.1663H101.711V20.2326C101.711 20.7452 101.754 21.2166 102.083 21.5411C102.413 21.8655 102.894 22.1402 103.538 22.1402H111.225V26.2359H103.434C101.543 26.2359 100.732 25.9788 100.192 25.786C99.6519 25.5931 99.1115 25.2554 98.5712 24.7247C98.0309 24.1941 97.7315 23.5982 97.4906 23.0711C97.2496 22.5441 97.1369 21.4313 97.1369 20.2326V10.1663H92.8791Z" fill="black"/>
</mask>
<g mask="url(#mask3_293_740)">
<path d="M67.5148 4.27267H63.0476V0.299988H67.5148V4.27267ZM67.5148 26.3H63.0476V8.02561H67.5148V26.3Z" stroke="#0B0C4F" stroke-width="0.6"/>
</g>
<mask id="mask4_293_740" style="mask-type:luminance" maskUnits="userSpaceOnUse" x="-1" y="-1" width="137" height="29">
<path d="M135.3 -0.700012H-0.699951V27.3H135.3V-0.700012Z" fill="white"/>
<path d="M22.9283 20.1297C22.9283 21.0087 22.7737 21.8258 22.4644 22.5809C22.1552 23.336 21.7199 23.9896 21.1586 24.5419C20.6088 25.0941 19.9502 25.528 19.1827 25.8436C18.4153 26.1479 17.5791 26.3 16.6742 26.3H0.300049V21.9047H16.6742C17.224 21.9047 17.6536 21.7525 17.9628 21.4482C18.2721 21.1327 18.4267 20.6932 18.4267 20.1297V2.05811H22.9283V20.1297Z" fill="black"/>
<path d="M47.7559 24.0854C47.7559 24.401 47.6986 24.694 47.5841 24.9645C47.4695 25.235 47.3092 25.4717 47.103 25.6745C46.9082 25.8661 46.6734 26.0183 46.3985 26.131C46.1351 26.2437 45.8487 26.3 45.5394 26.3H35.4366C34.8868 26.3 34.2969 26.238 33.6669 26.114C33.0484 25.9901 32.4355 25.7929 31.8285 25.5224C31.2214 25.2406 30.6315 24.8912 30.0587 24.4743C29.4975 24.046 29.0049 23.5332 28.5811 22.9359C28.1573 22.3273 27.8137 21.6286 27.5502 20.8397C27.2982 20.0508 27.1722 19.1604 27.1722 18.1687V8.0256H31.6395V18.1687C31.6395 18.7434 31.7368 19.2619 31.9315 19.7239C32.1377 20.1747 32.4126 20.5635 32.7563 20.8904C33.0999 21.2172 33.5008 21.4708 33.959 21.6511C34.4286 21.8202 34.9326 21.9047 35.471 21.9047H43.2886V8.0256H47.7559V24.0854Z" fill="black"/>
<path d="M60.1095 26.3H58.1164C57.475 26.3 56.7877 26.1929 56.0546 25.9788C55.333 25.7647 54.6572 25.4153 54.0272 24.9307C53.3972 24.4348 52.876 23.7981 52.4637 23.0204C52.0513 22.2315 51.8451 21.2679 51.8451 20.1297V0.299988H56.3124V20.1297C56.3124 20.6706 56.4842 21.1045 56.8278 21.4313C57.1714 21.7469 57.601 21.9047 58.1164 21.9047H60.1095V26.3Z" fill="black"/>
<path d="M67.5148 4.27267H63.0476V0.299988H67.5148V4.27267ZM67.5148 26.3H63.0476V8.02561H67.5148V26.3Z" fill="black"/>
<path d="M91.7925 14.0776C91.7925 14.6862 91.6837 15.3455 91.4661 16.0555C91.2485 16.7543 90.8934 17.4079 90.4008 18.0165C89.9197 18.6138 89.284 19.1153 88.4937 19.5211C87.7148 19.9268 86.764 20.1297 85.6415 20.1297H77.5833V15.9541H85.6415C86.2486 15.9541 86.7182 15.7738 87.0504 15.4131C87.3826 15.0412 87.5487 14.5848 87.5487 14.0438C87.5487 13.4691 87.3597 13.0183 86.9817 12.6914C86.6151 12.3646 86.1684 12.2012 85.6415 12.2012H77.5833C76.9762 12.2012 76.5066 12.3871 76.1744 12.759C75.8422 13.1197 75.6761 13.5705 75.6761 14.1114V20.248C75.6761 20.834 75.8594 21.2905 76.2259 21.6173C76.6039 21.9441 77.0678 22.1075 77.6177 22.1075H90.4008V26.3H77.5833C76.9647 26.3 76.2947 26.1929 75.573 25.9788C74.8629 25.7647 74.1985 25.4209 73.58 24.9476C72.9729 24.463 72.4632 23.8375 72.0508 23.0711C71.6384 22.2935 71.4322 21.3525 71.4322 20.248V14.0776C71.4322 13.4691 71.5411 12.8154 71.7587 12.1166C71.9763 11.4066 72.3257 10.753 72.8068 10.1557C73.2993 9.54706 73.935 9.0399 74.7139 8.63418C75.5043 8.22846 76.4608 8.0256 77.5833 8.0256H85.6415C86.26 8.0256 86.9244 8.13267 87.6346 8.3468C88.3562 8.56093 89.0206 8.9103 89.6277 9.39491C90.2462 9.86825 90.7616 10.4938 91.174 11.2714C91.5864 12.0378 91.7925 12.9732 91.7925 14.0776Z" fill="black"/>
<path d="M134.3 14.0776C134.3 14.6862 134.191 15.3455 133.974 16.0555C133.756 16.7543 133.401 17.4079 132.908 18.0165C132.427 18.6138 131.792 19.1153 131.001 19.5211C130.222 19.9268 129.272 20.1297 128.149 20.1297H120.091V15.9541H128.149C128.756 15.9541 129.226 15.7738 129.558 15.4131C129.89 15.0412 130.056 14.5848 130.056 14.0438C130.056 13.4691 129.867 13.0183 129.489 12.6914C129.123 12.3646 128.676 12.2012 128.149 12.2012H120.091C119.484 12.2012 119.014 12.3871 118.682 12.759C118.35 13.1197 118.184 13.5705 118.184 14.1114V20.248C118.184 20.834 118.367 21.2905 118.733 21.6173C119.111 21.9441 119.575 22.1075 120.125 22.1075H132.908V26.3H120.091C119.472 26.3 118.802 26.1929 118.081 25.9788C117.37 25.7647 116.706 25.4209 116.087 24.9476C115.48 24.463 114.971 23.8375 114.558 23.0711C114.146 22.2935 113.94 21.3525 113.94 20.248V14.0776C113.94 13.4691 114.049 12.8154 114.266 12.1166C114.484 11.4066 114.833 10.753 115.314 10.1557C115.807 9.54706 116.443 9.0399 117.221 8.63418C118.012 8.22846 118.968 8.0256 120.091 8.0256H128.149C128.768 8.0256 129.432 8.13267 130.142 8.3468C130.864 8.56093 131.528 8.9103 132.135 9.39491C132.754 9.86825 133.269 10.4938 133.682 11.2714C134.094 12.0378 134.3 12.9732 134.3 14.0776Z" fill="black"/>
<path d="M92.8791 10.1663V6.70416H97.1369V1.58017H101.711V6.70416H110.966V10.1663H101.711V20.2326C101.711 20.7452 101.754 21.2166 102.083 21.5411C102.413 21.8655 102.894 22.1402 103.538 22.1402H111.225V26.2359H103.434C101.543 26.2359 100.732 25.9788 100.192 25.786C99.6519 25.5931 99.1115 25.2554 98.5712 24.7247C98.0309 24.1941 97.7315 23.5982 97.4906 23.0711C97.2496 22.5441 97.1369 21.4313 97.1369 20.2326V10.1663H92.8791Z" fill="black"/>
</mask>
<g mask="url(#mask4_293_740)">
<path d="M91.7925 14.0776C91.7925 14.6862 91.6837 15.3455 91.4661 16.0555C91.2485 16.7543 90.8934 17.4079 90.4008 18.0165C89.9197 18.6138 89.284 19.1153 88.4937 19.5211C87.7148 19.9268 86.764 20.1297 85.6415 20.1297H77.5833V15.9541H85.6415C86.2486 15.9541 86.7182 15.7738 87.0504 15.4131C87.3826 15.0412 87.5487 14.5848 87.5487 14.0438C87.5487 13.4691 87.3597 13.0183 86.9817 12.6914C86.6151 12.3646 86.1684 12.2012 85.6415 12.2012H77.5833C76.9762 12.2012 76.5066 12.3871 76.1744 12.759C75.8422 13.1197 75.6761 13.5705 75.6761 14.1114V20.248C75.6761 20.834 75.8594 21.2905 76.2259 21.6173C76.6039 21.9441 77.0678 22.1075 77.6177 22.1075H90.4008V26.3H77.5833C76.9647 26.3 76.2947 26.1929 75.573 25.9788C74.8629 25.7647 74.1985 25.4209 73.58 24.9476C72.9729 24.463 72.4632 23.8375 72.0508 23.0711C71.6384 22.2935 71.4322 21.3525 71.4322 20.248V14.0776C71.4322 13.4691 71.5411 12.8154 71.7587 12.1166C71.9763 11.4066 72.3257 10.753 72.8068 10.1557C73.2993 9.54706 73.935 9.0399 74.7139 8.63418C75.5043 8.22846 76.4608 8.0256 77.5833 8.0256H85.6415C86.26 8.0256 86.9244 8.13267 87.6346 8.3468C88.3562 8.56093 89.0206 8.9103 89.6277 9.39491C90.2462 9.86825 90.7616 10.4938 91.174 11.2714C91.5864 12.0378 91.7925 12.9732 91.7925 14.0776Z" stroke="#0B0C4F" stroke-width="0.6"/>
</g>
<mask id="mask5_293_740" style="mask-type:luminance" maskUnits="userSpaceOnUse" x="-1" y="-1" width="137" height="29">
<path d="M135.3 -0.700012H-0.699951V27.3H135.3V-0.700012Z" fill="white"/>
<path d="M22.9283 20.1297C22.9283 21.0087 22.7737 21.8258 22.4644 22.5809C22.1552 23.336 21.7199 23.9896 21.1586 24.5419C20.6088 25.0941 19.9502 25.528 19.1827 25.8436C18.4153 26.1479 17.5791 26.3 16.6742 26.3H0.300049V21.9047H16.6742C17.224 21.9047 17.6536 21.7525 17.9628 21.4482C18.2721 21.1327 18.4267 20.6932 18.4267 20.1297V2.05811H22.9283V20.1297Z" fill="black"/>
<path d="M47.7559 24.0854C47.7559 24.401 47.6986 24.694 47.5841 24.9645C47.4695 25.235 47.3092 25.4717 47.103 25.6745C46.9082 25.8661 46.6734 26.0183 46.3985 26.131C46.1351 26.2437 45.8487 26.3 45.5394 26.3H35.4366C34.8868 26.3 34.2969 26.238 33.6669 26.114C33.0484 25.9901 32.4355 25.7929 31.8285 25.5224C31.2214 25.2406 30.6315 24.8912 30.0587 24.4743C29.4975 24.046 29.0049 23.5332 28.5811 22.9359C28.1573 22.3273 27.8137 21.6286 27.5502 20.8397C27.2982 20.0508 27.1722 19.1604 27.1722 18.1687V8.0256H31.6395V18.1687C31.6395 18.7434 31.7368 19.2619 31.9315 19.7239C32.1377 20.1747 32.4126 20.5635 32.7563 20.8904C33.0999 21.2172 33.5008 21.4708 33.959 21.6511C34.4286 21.8202 34.9326 21.9047 35.471 21.9047H43.2886V8.0256H47.7559V24.0854Z" fill="black"/>
<path d="M60.1095 26.3H58.1164C57.475 26.3 56.7877 26.1929 56.0546 25.9788C55.333 25.7647 54.6572 25.4153 54.0272 24.9307C53.3972 24.4348 52.876 23.7981 52.4637 23.0204C52.0513 22.2315 51.8451 21.2679 51.8451 20.1297V0.299988H56.3124V20.1297C56.3124 20.6706 56.4842 21.1045 56.8278 21.4313C57.1714 21.7469 57.601 21.9047 58.1164 21.9047H60.1095V26.3Z" fill="black"/>
<path d="M67.5148 4.27267H63.0476V0.299988H67.5148V4.27267ZM67.5148 26.3H63.0476V8.02561H67.5148V26.3Z" fill="black"/>
<path d="M91.7925 14.0776C91.7925 14.6862 91.6837 15.3455 91.4661 16.0555C91.2485 16.7543 90.8934 17.4079 90.4008 18.0165C89.9197 18.6138 89.284 19.1153 88.4937 19.5211C87.7148 19.9268 86.764 20.1297 85.6415 20.1297H77.5833V15.9541H85.6415C86.2486 15.9541 86.7182 15.7738 87.0504 15.4131C87.3826 15.0412 87.5487 14.5848 87.5487 14.0438C87.5487 13.4691 87.3597 13.0183 86.9817 12.6914C86.6151 12.3646 86.1684 12.2012 85.6415 12.2012H77.5833C76.9762 12.2012 76.5066 12.3871 76.1744 12.759C75.8422 13.1197 75.6761 13.5705 75.6761 14.1114V20.248C75.6761 20.834 75.8594 21.2905 76.2259 21.6173C76.6039 21.9441 77.0678 22.1075 77.6177 22.1075H90.4008V26.3H77.5833C76.9647 26.3 76.2947 26.1929 75.573 25.9788C74.8629 25.7647 74.1985 25.4209 73.58 24.9476C72.9729 24.463 72.4632 23.8375 72.0508 23.0711C71.6384 22.2935 71.4322 21.3525 71.4322 20.248V14.0776C71.4322 13.4691 71.5411 12.8154 71.7587 12.1166C71.9763 11.4066 72.3257 10.753 72.8068 10.1557C73.2993 9.54706 73.935 9.0399 74.7139 8.63418C75.5043 8.22846 76.4608 8.0256 77.5833 8.0256H85.6415C86.26 8.0256 86.9244 8.13267 87.6346 8.3468C88.3562 8.56093 89.0206 8.9103 89.6277 9.39491C90.2462 9.86825 90.7616 10.4938 91.174 11.2714C91.5864 12.0378 91.7925 12.9732 91.7925 14.0776Z" fill="black"/>
<path d="M134.3 14.0776C134.3 14.6862 134.191 15.3455 133.974 16.0555C133.756 16.7543 133.401 17.4079 132.908 18.0165C132.427 18.6138 131.792 19.1153 131.001 19.5211C130.222 19.9268 129.272 20.1297 128.149 20.1297H120.091V15.9541H128.149C128.756 15.9541 129.226 15.7738 129.558 15.4131C129.89 15.0412 130.056 14.5848 130.056 14.0438C130.056 13.4691 129.867 13.0183 129.489 12.6914C129.123 12.3646 128.676 12.2012 128.149 12.2012H120.091C119.484 12.2012 119.014 12.3871 118.682 12.759C118.35 13.1197 118.184 13.5705 118.184 14.1114V20.248C118.184 20.834 118.367 21.2905 118.733 21.6173C119.111 21.9441 119.575 22.1075 120.125 22.1075H132.908V26.3H120.091C119.472 26.3 118.802 26.1929 118.081 25.9788C117.37 25.7647 116.706 25.4209 116.087 24.9476C115.48 24.463 114.971 23.8375 114.558 23.0711C114.146 22.2935 113.94 21.3525 113.94 20.248V14.0776C113.94 13.4691 114.049 12.8154 114.266 12.1166C114.484 11.4066 114.833 10.753 115.314 10.1557C115.807 9.54706 116.443 9.0399 117.221 8.63418C118.012 8.22846 118.968 8.0256 120.091 8.0256H128.149C128.768 8.0256 129.432 8.13267 130.142 8.3468C130.864 8.56093 131.528 8.9103 132.135 9.39491C132.754 9.86825 133.269 10.4938 133.682 11.2714C134.094 12.0378 134.3 12.9732 134.3 14.0776Z" fill="black"/>
<path d="M92.8791 10.1663V6.70416H97.1369V1.58017H101.711V6.70416H110.966V10.1663H101.711V20.2326C101.711 20.7452 101.754 21.2166 102.083 21.5411C102.413 21.8655 102.894 22.1402 103.538 22.1402H111.225V26.2359H103.434C101.543 26.2359 100.732 25.9788 100.192 25.786C99.6519 25.5931 99.1115 25.2554 98.5712 24.7247C98.0309 24.1941 97.7315 23.5982 97.4906 23.0711C97.2496 22.5441 97.1369 21.4313 97.1369 20.2326V10.1663H92.8791Z" fill="black"/>
</mask>
<g mask="url(#mask5_293_740)">
<path d="M134.3 14.0776C134.3 14.6862 134.191 15.3455 133.974 16.0555C133.756 16.7543 133.401 17.4079 132.908 18.0165C132.427 18.6138 131.792 19.1153 131.001 19.5211C130.222 19.9268 129.272 20.1297 128.149 20.1297H120.091V15.9541H128.149C128.756 15.9541 129.226 15.7738 129.558 15.4131C129.89 15.0412 130.056 14.5848 130.056 14.0438C130.056 13.4691 129.867 13.0183 129.489 12.6914C129.123 12.3646 128.676 12.2012 128.149 12.2012H120.091C119.484 12.2012 119.014 12.3871 118.682 12.759C118.35 13.1197 118.184 13.5705 118.184 14.1114V20.248C118.184 20.834 118.367 21.2905 118.733 21.6173C119.111 21.9441 119.575 22.1075 120.125 22.1075H132.908V26.3H120.091C119.472 26.3 118.802 26.1929 118.081 25.9788C117.37 25.7647 116.706 25.4209 116.087 24.9476C115.48 24.463 114.971 23.8375 114.558 23.0711C114.146 22.2935 113.94 21.3525 113.94 20.248V14.0776C113.94 13.4691 114.049 12.8154 114.266 12.1166C114.484 11.4066 114.833 10.753 115.314 10.1557C115.807 9.54706 116.443 9.0399 117.221 8.63418C118.012 8.22846 118.968 8.0256 120.091 8.0256H128.149C128.768 8.0256 129.432 8.13267 130.142 8.3468C130.864 8.56093 131.528 8.9103 132.135 9.39491C132.754 9.86825 133.269 10.4938 133.682 11.2714C134.094 12.0378 134.3 12.9732 134.3 14.0776Z" stroke="#0B0C4F" stroke-width="0.6"/>
</g>
<mask id="mask6_293_740" style="mask-type:luminance" maskUnits="userSpaceOnUse" x="-1" y="-1" width="137" height="29">
<path d="M135.3 -0.700012H-0.699951V27.3H135.3V-0.700012Z" fill="white"/>
<path d="M22.9283 20.1297C22.9283 21.0087 22.7737 21.8258 22.4644 22.5809C22.1552 23.336 21.7199 23.9896 21.1586 24.5419C20.6088 25.0941 19.9502 25.528 19.1827 25.8436C18.4153 26.1479 17.5791 26.3 16.6742 26.3H0.300049V21.9047H16.6742C17.224 21.9047 17.6536 21.7525 17.9628 21.4482C18.2721 21.1327 18.4267 20.6932 18.4267 20.1297V2.05811H22.9283V20.1297Z" fill="black"/>
<path d="M47.7559 24.0854C47.7559 24.401 47.6986 24.694 47.5841 24.9645C47.4695 25.235 47.3092 25.4717 47.103 25.6745C46.9082 25.8661 46.6734 26.0183 46.3985 26.131C46.1351 26.2437 45.8487 26.3 45.5394 26.3H35.4366C34.8868 26.3 34.2969 26.238 33.6669 26.114C33.0484 25.9901 32.4355 25.7929 31.8285 25.5224C31.2214 25.2406 30.6315 24.8912 30.0587 24.4743C29.4975 24.046 29.0049 23.5332 28.5811 22.9359C28.1573 22.3273 27.8137 21.6286 27.5502 20.8397C27.2982 20.0508 27.1722 19.1604 27.1722 18.1687V8.0256H31.6395V18.1687C31.6395 18.7434 31.7368 19.2619 31.9315 19.7239C32.1377 20.1747 32.4126 20.5635 32.7563 20.8904C33.0999 21.2172 33.5008 21.4708 33.959 21.6511C34.4286 21.8202 34.9326 21.9047 35.471 21.9047H43.2886V8.0256H47.7559V24.0854Z" fill="black"/>
<path d="M60.1095 26.3H58.1164C57.475 26.3 56.7877 26.1929 56.0546 25.9788C55.333 25.7647 54.6572 25.4153 54.0272 24.9307C53.3972 24.4348 52.876 23.7981 52.4637 23.0204C52.0513 22.2315 51.8451 21.2679 51.8451 20.1297V0.299988H56.3124V20.1297C56.3124 20.6706 56.4842 21.1045 56.8278 21.4313C57.1714 21.7469 57.601 21.9047 58.1164 21.9047H60.1095V26.3Z" fill="black"/>
<path d="M67.5148 4.27267H63.0476V0.299988H67.5148V4.27267ZM67.5148 26.3H63.0476V8.02561H67.5148V26.3Z" fill="black"/>
<path d="M91.7925 14.0776C91.7925 14.6862 91.6837 15.3455 91.4661 16.0555C91.2485 16.7543 90.8934 17.4079 90.4008 18.0165C89.9197 18.6138 89.284 19.1153 88.4937 19.5211C87.7148 19.9268 86.764 20.1297 85.6415 20.1297H77.5833V15.9541H85.6415C86.2486 15.9541 86.7182 15.7738 87.0504 15.4131C87.3826 15.0412 87.5487 14.5848 87.5487 14.0438C87.5487 13.4691 87.3597 13.0183 86.9817 12.6914C86.6151 12.3646 86.1684 12.2012 85.6415 12.2012H77.5833C76.9762 12.2012 76.5066 12.3871 76.1744 12.759C75.8422 13.1197 75.6761 13.5705 75.6761 14.1114V20.248C75.6761 20.834 75.8594 21.2905 76.2259 21.6173C76.6039 21.9441 77.0678 22.1075 77.6177 22.1075H90.4008V26.3H77.5833C76.9647 26.3 76.2947 26.1929 75.573 25.9788C74.8629 25.7647 74.1985 25.4209 73.58 24.9476C72.9729 24.463 72.4632 23.8375 72.0508 23.0711C71.6384 22.2935 71.4322 21.3525 71.4322 20.248V14.0776C71.4322 13.4691 71.5411 12.8154 71.7587 12.1166C71.9763 11.4066 72.3257 10.753 72.8068 10.1557C73.2993 9.54706 73.935 9.0399 74.7139 8.63418C75.5043 8.22846 76.4608 8.0256 77.5833 8.0256H85.6415C86.26 8.0256 86.9244 8.13267 87.6346 8.3468C88.3562 8.56093 89.0206 8.9103 89.6277 9.39491C90.2462 9.86825 90.7616 10.4938 91.174 11.2714C91.5864 12.0378 91.7925 12.9732 91.7925 14.0776Z" fill="black"/>
<path d="M134.3 14.0776C134.3 14.6862 134.191 15.3455 133.974 16.0555C133.756 16.7543 133.401 17.4079 132.908 18.0165C132.427 18.6138 131.792 19.1153 131.001 19.5211C130.222 19.9268 129.272 20.1297 128.149 20.1297H120.091V15.9541H128.149C128.756 15.9541 129.226 15.7738 129.558 15.4131C129.89 15.0412 130.056 14.5848 130.056 14.0438C130.056 13.4691 129.867 13.0183 129.489 12.6914C129.123 12.3646 128.676 12.2012 128.149 12.2012H120.091C119.484 12.2012 119.014 12.3871 118.682 12.759C118.35 13.1197 118.184 13.5705 118.184 14.1114V20.248C118.184 20.834 118.367 21.2905 118.733 21.6173C119.111 21.9441 119.575 22.1075 120.125 22.1075H132.908V26.3H120.091C119.472 26.3 118.802 26.1929 118.081 25.9788C117.37 25.7647 116.706 25.4209 116.087 24.9476C115.48 24.463 114.971 23.8375 114.558 23.0711C114.146 22.2935 113.94 21.3525 113.94 20.248V14.0776C113.94 13.4691 114.049 12.8154 114.266 12.1166C114.484 11.4066 114.833 10.753 115.314 10.1557C115.807 9.54706 116.443 9.0399 117.221 8.63418C118.012 8.22846 118.968 8.0256 120.091 8.0256H128.149C128.768 8.0256 129.432 8.13267 130.142 8.3468C130.864 8.56093 131.528 8.9103 132.135 9.39491C132.754 9.86825 133.269 10.4938 133.682 11.2714C134.094 12.0378 134.3 12.9732 134.3 14.0776Z" fill="black"/>
<path d="M92.8791 10.1663V6.70416H97.1369V1.58017H101.711V6.70416H110.966V10.1663H101.711V20.2326C101.711 20.7452 101.754 21.2166 102.083 21.5411C102.413 21.8655 102.894 22.1402 103.538 22.1402H111.225V26.2359H103.434C101.543 26.2359 100.732 25.9788 100.192 25.786C99.6519 25.5931 99.1115 25.2554 98.5712 24.7247C98.0309 24.1941 97.7315 23.5982 97.4906 23.0711C97.2496 22.5441 97.1369 21.4313 97.1369 20.2326V10.1663H92.8791Z" fill="black"/>
</mask>
<g mask="url(#mask6_293_740)">
<path d="M92.8791 10.1663V6.70416H97.1369V1.58017H101.711V6.70416H110.966V10.1663H101.711V20.2326C101.711 20.7452 101.754 21.2166 102.083 21.5411C102.413 21.8655 102.894 22.1402 103.538 22.1402H111.225V26.2359H103.434C101.543 26.2359 100.732 25.9788 100.192 25.786C99.6519 25.5931 99.1115 25.2554 98.5712 24.7247C98.0309 24.1941 97.7315 23.5982 97.4906 23.0711C97.2496 22.5441 97.1369 21.4313 97.1369 20.2326V10.1663H92.8791Z" stroke="#0B0C4F" stroke-width="0.6"/>
</g>
</g>
<defs>
<clipPath id="clip0_293_740">
<rect width="135" height="27" fill="white"/>
</clipPath>
</defs>
</svg>
