<svg width="38" height="38" viewBox="0 0 38 38" fill="none" xmlns="http://www.w3.org/2000/svg">
<path d="M33.9333 19C33.381 19 32.9333 19.4477 32.9333 20V29.45C32.9333 29.9119 32.7498 30.3549 32.4232 30.6816C32.0966 31.0082 31.6536 31.1917 31.1917 31.1917C30.7297 31.1917 30.2867 31.0082 29.9601 30.6816C29.6335 30.3549 29.45 29.9119 29.45 29.45V5.06668C29.45 4.60476 29.2665 4.16176 28.9399 3.83513C28.6133 3.50851 28.1702 3.32501 27.7083 3.32501H3.325C2.86308 3.32501 2.42008 3.50851 2.09345 3.83513C1.76682 4.16176 1.58333 4.60476 1.58333 5.06668V29.45C1.58333 32.3307 3.92761 34.675 6.80833 34.675H31.1917C34.0724 34.675 36.4167 32.3307 36.4167 29.45V20C36.4167 19.4477 35.9689 19 35.4167 19H33.9333ZM21.4833 17.2583C22.0356 17.2583 22.4833 17.7061 22.4833 18.2583V19.7417C22.4833 20.294 22.0356 20.7417 21.4833 20.7417H9.54999C8.99771 20.7417 8.55 20.294 8.55 19.7417V18.2583C8.55 17.7061 8.99771 17.2583 9.55 17.2583H21.4833ZM9.54999 13.775C8.99771 13.775 8.55 13.3273 8.55 12.775V11.2917C8.55 10.7394 8.99771 10.2917 9.55 10.2917H21.4833C22.0356 10.2917 22.4833 10.7394 22.4833 11.2917V12.775C22.4833 13.3273 22.0356 13.775 21.4833 13.775H9.54999ZM21.4833 24.225C22.0356 24.225 22.4833 24.6727 22.4833 25.225V26.7083C22.4833 27.2606 22.0356 27.7083 21.4833 27.7083H18.2583C17.706 27.7083 17.2583 27.2606 17.2583 26.7083V25.225C17.2583 24.6727 17.706 24.225 18.2583 24.225H21.4833Z" fill="#FE8400"/>
</svg>
