<svg width="27" height="27" viewBox="0 0 27 27" fill="none" xmlns="http://www.w3.org/2000/svg">
<g clip-path="url(#clip0_474_97)">
<path fill-rule="evenodd" clip-rule="evenodd" d="M6.67074 1.72247C6.77917 1.50549 6.94585 1.32298 7.15213 1.19538C7.35842 1.06778 7.59615 1.00013 7.83871 1H15.6774C15.92 1.00013 16.1577 1.06778 16.364 1.19538C16.5703 1.32298 16.737 1.50549 16.8454 1.72247L19.0977 6.22581H22.2097C22.5562 6.22581 22.8885 6.36345 23.1335 6.60846C23.3785 6.85346 23.5161 7.18577 23.5161 7.53226C23.5161 7.87875 23.3785 8.21105 23.1335 8.45606C22.8885 8.70107 22.5562 8.83871 22.2097 8.83871H20.9032V23.2097C20.9032 24.2492 20.4903 25.2461 19.7553 25.9811C19.0203 26.7161 18.0233 27.129 16.9839 27.129H6.53226C5.49278 27.129 4.49588 26.7161 3.76086 25.9811C3.02583 25.2461 2.6129 24.2492 2.6129 23.2097V8.83871H1.30645C0.959959 8.83871 0.627658 8.70107 0.382651 8.45606C0.137644 8.21105 0 7.87875 0 7.53226C0 7.18577 0.137644 6.85346 0.382651 6.60846C0.627658 6.36345 0.959959 6.22581 1.30645 6.22581H4.41842L6.67074 1.72247ZM14.87 3.6129L16.1765 6.22581H7.33964L8.6461 3.6129H14.87ZM10.4516 12.7581C10.4516 12.4116 10.314 12.0793 10.069 11.8343C9.82395 11.5893 9.49165 11.4516 9.14516 11.4516C8.79867 11.4516 8.46637 11.5893 8.22136 11.8343C7.97635 12.0793 7.83871 12.4116 7.83871 12.7581V20.5968C7.83871 20.9433 7.97635 21.2756 8.22136 21.5206C8.46637 21.7656 8.79867 21.9032 9.14516 21.9032C9.49165 21.9032 9.82395 21.7656 10.069 21.5206C10.314 21.2756 10.4516 20.9433 10.4516 20.5968V12.7581ZM15.6774 12.7581C15.6774 12.4116 15.5398 12.0793 15.2948 11.8343C15.0498 11.5893 14.7175 11.4516 14.371 11.4516C14.0245 11.4516 13.6922 11.5893 13.4472 11.8343C13.2022 12.0793 13.0645 12.4116 13.0645 12.7581V20.5968C13.0645 20.9433 13.2022 21.2756 13.4472 21.5206C13.6922 21.7656 14.0245 21.9032 14.371 21.9032C14.7175 21.9032 15.0498 21.7656 15.2948 21.5206C15.5398 21.2756 15.6774 20.9433 15.6774 20.5968V12.7581Z" fill="black"/>
</g>
<defs>
<clipPath id="clip0_474_97">
<rect width="27" height="27" fill="white"/>
</clipPath>
</defs>
</svg>
